<?xml version="1.0"?>
<svg version="1.1" xmlns="http://www.w3.org/2000/svg" width="400" height="200" style=""><path fill="#f50505" d="M16.26,116.8l0-2.38l2.1-0.84l0-13.16l-2.1-0.84l0-2.38l6.44-0.14l7.84,0l0,5.32l-2.604,0l-0.7-1.96l-4.536,0l0,4.9l5.796,0l0,3.08l-5.796,0l0,5.18l2.576,0.84l0,2.38l-9.016,0z M35.90228,97.06c0-1.596,1.148-2.52,2.408-2.52c1.456,0,2.352,0.756,2.352,2.52c0,1.652-1.204,2.548-2.352,2.548c-1.512,0-2.408-0.896-2.408-2.548z M40.60628,113.86l1.96,0.7l0,2.24l-8.4,0l0-2.24l2.24-0.7l0-9.1l-2.24-0.7l0-2.24l6.44-0.14l0,12.18z M52.38056,113.86l2.52,0.7l0,2.24l-8.988,0l0-2.24l2.24-0.7l0-15.736l-2.24-0.56l0-2.24l6.468-0.224l0,18.76z M84.09084,114.56l0,2.24l-7.588,0l0-2.24l1.484-0.7l0-6.664c0-1.54-0.448-2.296-1.624-2.296c-1.82,0-3.108,1.456-3.108,1.456l0,7.504l1.456,0.7l0,2.24l-7.112,0l0-2.24l1.456-0.7l0-6.664c0-1.54-0.392-2.296-1.596-2.296c-1.82,0-3.136,1.456-3.136,1.456l0,7.504l1.484,0.7l0,2.24l-7.84,0l0-2.24l2.156-0.7l0-9.1l-2.128-0.7l0-2.24l5.852-0.14l0.196,1.988s2.436-2.268,4.9-2.268c1.988,0,3.22,0.924,3.864,2.408c0.476-0.476,2.576-2.408,5.068-2.408c2.94,0,4.312,1.904,4.312,5.04l0,7.42z M89.45312,97.06c0-1.596,1.148-2.52,2.408-2.52c1.456,0,2.352,0.756,2.352,2.52c0,1.652-1.204,2.548-2.352,2.548c-1.512,0-2.408-0.896-2.408-2.548z M94.15712,113.86l1.96,0.7l0,2.24l-8.4,0l0-2.24l2.24-0.7l0-9.1l-2.24-0.7l0-2.24l6.44-0.14l0,12.18z M102.5434,101.96l0-1.26c0-3.556,2.044-5.936,6.02-5.936c3.024,0,4.956,1.036,4.956,1.036l-0.084,4.116l-2.52,0l-0.42-1.96s-0.672-0.112-1.596-0.112c-1.54,0-2.156,0.924-2.156,2.38l0,1.736l3.64,0l-0.084,2.8l-3.556,0l0,9.1l2.8,0.7l0,2.24l-9.24,0l0-2.24l2.24-0.7l0-9.1l-2.52,0l0-2.38z M113.92568,104.06l0-2.24l7.476-0.14l0,2.38l-1.568,0.28l2.492,7.84l2.38-7.756l-1.624-0.364l0-2.24l7.532-0.14l0,2.38l-1.736,0.364l-4.116,11.48c-1.344,3.696-3.164,7.616-7.616,7.616c-0.952,0-2.716-0.224-2.716-0.224l0.392-2.996l1.82,0c2.24,0,3.276-2.38,3.752-3.472l-4.984-12.32z"/><path fill="#" d=""/></svg>
