<?xml version="1.0"?>
<svg version="1.1" xmlns="http://www.w3.org/2000/svg" width="400" height="37" style=""><path fill="#fff" d="M20.786,19.226c0,1.705-1.287,2.541-2.904,2.541c-0.088,0-0.583-0.022-0.66-0.033l0,2.442c0,0.165-0.066,0.264-0.275,0.264l-0.88,0c-0.176,0-0.264-0.077-0.264-0.297l0-7.018c0-0.22,0.066-0.297,0.275-0.297l1.595,0c1.166,0,2.024,0.22,2.563,0.836c0.352,0.407,0.55,0.968,0.55,1.562z M19.356,19.281c0-1.001-0.616-1.353-1.562-1.353l-0.572,0l0,2.728c0.088,0,0.583,0.011,0.649,0.011c0.935,0,1.485-0.44,1.485-1.386z M27.4465,21.767c0,1.584-0.968,2.805-2.684,2.805c-1.793,0-2.618-1.21-2.618-2.816c0-1.584,0.968-2.794,2.684-2.794c1.793,0,2.618,1.188,2.618,2.805z M26.0715,21.767c0-0.902-0.286-1.76-1.254-1.76c-0.979,0-1.298,0.847-1.298,1.727c0,0.902,0.275,1.793,1.254,1.793c0.968,0,1.298-0.858,1.298-1.76z M36.241,19.248c0,0.033,0,0.055-0.011,0.088l-1.474,4.84c-0.055,0.165-0.143,0.264-0.341,0.264l-0.748,0c-0.198,0-0.286-0.099-0.341-0.275l-0.913-3.135l-0.022,0l-0.902,3.157c-0.055,0.176-0.154,0.253-0.352,0.253l-0.737,0c-0.176,0-0.297-0.11-0.341-0.264l-1.441-4.84c-0.011-0.033-0.011-0.066-0.011-0.088c0-0.099,0.077-0.143,0.22-0.143l0.902,0c0.209,0,0.275,0.077,0.308,0.209l0.792,3.476l0.011,0l1.023-3.465c0.044-0.165,0.154-0.22,0.297-0.22l0.616,0c0.165,0,0.264,0.055,0.297,0.187l1.001,3.52l0.011,0l0.825-3.465c0.033-0.154,0.121-0.242,0.319-0.242l0.847,0c0.132,0,0.165,0.066,0.165,0.143z M42.3955,21.756c0,0.264-0.088,0.319-0.363,0.319l-3.223,0c0.088,0.847,0.704,1.43,1.573,1.43c0.462,0,0.946-0.11,1.353-0.264c0.044-0.011,0.077-0.033,0.121-0.033c0.077,0,0.132,0.044,0.154,0.132l0.154,0.561c0.011,0.055,0.022,0.099,0.022,0.132c0,0.077-0.044,0.132-0.176,0.187c-0.539,0.242-1.276,0.352-1.848,0.352c-1.727,0-2.75-1.1-2.75-2.816c0-1.65,1.089-2.794,2.728-2.794c0.671,0,1.221,0.253,1.606,0.66c0.506,0.528,0.649,1.221,0.649,1.969l0,0.165z M41.0865,21.206l0-0.121c-0.022-0.572-0.352-1.1-1.023-1.1c-0.715,0-1.144,0.572-1.232,1.221l2.255,0z M47.065,19.149c0,0.033,0,0.066-0.011,0.099l-0.121,0.781c-0.011,0.099-0.066,0.143-0.154,0.143l-0.044,0c-0.088-0.022-0.198-0.033-0.297-0.033c-0.374,0-0.781,0.198-1.056,0.528l0,3.498c0,0.176-0.077,0.275-0.264,0.275l-0.803,0c-0.176,0-0.264-0.088-0.264-0.275l0-3.432l0-1.353c0-0.22,0.11-0.275,0.275-0.275l0.704,0c0.176,0,0.275,0.055,0.275,0.209l0.011,0.352c0.341-0.429,0.715-0.704,1.331-0.704c0.088,0,0.209,0.022,0.308,0.044c0.077,0.022,0.11,0.055,0.11,0.143z M53.1645,21.756c0,0.264-0.088,0.319-0.363,0.319l-3.223,0c0.088,0.847,0.704,1.43,1.573,1.43c0.462,0,0.946-0.11,1.353-0.264c0.044-0.011,0.077-0.033,0.121-0.033c0.077,0,0.132,0.044,0.154,0.132l0.154,0.561c0.011,0.055,0.022,0.099,0.022,0.132c0,0.077-0.044,0.132-0.176,0.187c-0.539,0.242-1.276,0.352-1.848,0.352c-1.727,0-2.75-1.1-2.75-2.816c0-1.65,1.089-2.794,2.728-2.794c0.671,0,1.221,0.253,1.606,0.66c0.506,0.528,0.649,1.221,0.649,1.969l0,0.165z M51.8555,21.206l0-0.121c-0.022-0.572-0.352-1.1-1.023-1.1c-0.715,0-1.144,0.572-1.232,1.221l2.255,0z M59.561,24.165c0,0.187-0.11,0.275-0.242,0.275l-0.715,0c-0.176,0-0.253-0.088-0.264-0.22l-0.022-0.297c-0.308,0.352-0.924,0.649-1.496,0.649c-1.595,0-2.321-1.265-2.321-2.739c0-1.54,0.858-2.882,2.409-2.882c0.495,0,1.012,0.198,1.32,0.517l0-2.475c0-0.198,0.055-0.275,0.231-0.297l0.814-0.11c0.011,0,0.099-0.011,0.11-0.011c0.132,0,0.176,0.055,0.176,0.22l0,7.37z M58.23,22.944l0-2.387c-0.22-0.297-0.638-0.539-1.056-0.539c-0.891,0-1.287,0.836-1.287,1.738s0.33,1.738,1.221,1.738c0.407,0,0.902-0.275,1.122-0.55z M69.945,21.778c0,1.518-0.781,2.794-2.42,2.794c-0.495,0-1.089-0.286-1.397-0.627l-0.044,0.363c-0.011,0.099-0.099,0.132-0.242,0.132l-0.66,0c-0.187,0-0.264-0.088-0.264-0.275l0-7.172c0-0.176,0.044-0.275,0.22-0.297l0.814-0.11c0.044-0.011,0.077-0.011,0.11-0.011c0.11,0,0.187,0.044,0.187,0.22l0,2.706c0.352-0.308,0.88-0.539,1.452-0.539c0.605,0,1.056,0.198,1.408,0.517c0.583,0.517,0.836,1.375,0.836,2.299z M68.57,21.789c0-0.891-0.275-1.705-1.188-1.705c-0.407,0-0.836,0.22-1.133,0.495l0,2.354c0.264,0.297,0.671,0.539,1.078,0.539c0.957,0,1.243-0.825,1.243-1.683z M76.4955,19.259c0,0.033-0.011,0.066-0.022,0.11l-2.167,5.698c-0.495,1.309-1.111,1.771-2.431,1.771c-0.209,0-0.396-0.011-0.583-0.055c-0.121-0.022-0.165-0.088-0.165-0.187c0-0.033,0.011-0.055,0.011-0.099l0.077-0.572c0.022-0.143,0.077-0.198,0.198-0.198l0.066,0c0.132,0.011,0.264,0.033,0.374,0.033c0.682,0,0.968-0.242,1.188-0.759l0.209-0.495l-2.002-5.159c-0.011-0.033-0.022-0.055-0.022-0.088c0-0.088,0.066-0.154,0.165-0.154l1.056,0c0.154,0,0.231,0.077,0.275,0.187l1.221,3.641l1.155-3.575c0.055-0.176,0.143-0.253,0.33-0.253l0.891,0c0.11,0,0.176,0.066,0.176,0.154z"/><path fill="#fff" d="M88.509,32.08l0-13.16l-2.66,0l-0.7,2.66l-2.576,0l0-6.02l16.24,0l0,6.02l-2.604,0l-0.7-2.66l-2.66,0l0,13.16l2.66,0.84l0,2.38l-9.66,0l0-2.38z M108.03928,13.6l0,8.204c0.812-0.672,2.632-1.904,4.704-1.904c2.856,0,4.396,1.904,4.396,5.04l0,7.42l1.96,0.7l0,2.24l-7.616,0l0-2.24l1.456-0.672l0-6.776c0-1.4-0.56-2.24-1.848-2.24c-1.568,0-3.052,1.484-3.052,1.484l0,7.504l1.484,0.7l0,2.24l-7.924,0l0-2.24l2.24-0.7l0-15.736l-2.24-0.56l0-2.24z M136.38956,28.664l-9.296,0c0.168,2.24,1.456,3.556,3.388,3.556c2.324,0,4.704-1.316,4.704-1.316l1.204,2.324s-2.8,2.352-6.384,2.352c-4.816,0-7.28-2.8-7.28-7.56c0-4.9,2.772-8.12,7.476-8.12c4.172,0,6.356,2.576,6.356,6.58c0,1.064-0.168,2.1-0.168,2.184z M127.14956,26.06l5.068,0c0-1.596-0.672-2.8-2.296-2.8c-1.568,0-2.548,1.148-2.772,2.8z M148.99012,35.3l0-2.38l2.1-0.84l0-13.16l-2.1-0.84l0-2.38l7.224-0.14l4.2,9.324l4.396-9.184l6.72-0.14l0,2.52l-2.016,0.84l0,13.16l2.1,0.84l0,2.38l-8.344,0l0-2.38l2.184-0.84l0-10.528l-0.756,1.848l-3.164,6.58l-3.024,0.14l-3.22-6.636l-0.476-1.456l0,10.052l2.156,0.84l0,2.38l-7.98,0z M183.0804,19.9c4.536,0,7.056,2.744,7.056,7.56c0,5.04-2.94,8.12-7.476,8.12c-4.564,0-7.14-2.38-7.14-7.7c0-5.04,2.996-7.98,7.56-7.98z M182.9404,23.26c-2.044,0-3.08,1.12-3.08,4.48c0,3.08,0.896,4.48,2.94,4.48c2.016,0,2.996-1.26,2.996-4.62c0-2.856-0.84-4.34-2.856-4.34z M202.35868,22.56l0-2.24l7.336-0.14l0,2.38l-1.596,0.364l-4.508,12.376l-4.62,0l-4.424-12.292l-1.344-0.448l0-2.24l7.336-0.14l0,2.38l-1.568,0.28l2.548,8.26l2.464-8.176z M214.49696,15.56c0-1.596,1.148-2.52,2.408-2.52c1.456,0,2.352,0.756,2.352,2.52c0,1.652-1.204,2.548-2.352,2.548c-1.512,0-2.408-0.896-2.408-2.548z M219.20096,32.36l1.96,0.7l0,2.24l-8.4,0l0-2.24l2.24-0.7l0-9.1l-2.24-0.7l0-2.24l6.44-0.14l0,12.18z M238.59124,28.664l-9.296,0c0.168,2.24,1.456,3.556,3.388,3.556c2.324,0,4.704-1.316,4.704-1.316l1.204,2.324s-2.8,2.352-6.384,2.352c-4.816,0-7.28-2.8-7.28-7.56c0-4.9,2.772-8.12,7.476-8.12c4.172,0,6.356,2.576,6.356,6.58c0,1.064-0.168,2.1-0.168,2.184z M229.35124,26.06l5.068,0c0-1.596-0.672-2.8-2.296-2.8c-1.568,0-2.548,1.148-2.772,2.8z M253.4318,32.08l0-13.16l-2.1-0.84l0-2.38l6.44-0.14l2.66,0c5.6,0,8.904,3.304,8.904,9.604s-3.64,10.136-9.324,10.136l-8.68,0l0-2.38z M257.7718,31.94l2.324,0c2.716,0,4.536-1.596,4.536-6.636c0-4.704-1.596-6.384-4.34-6.384l-2.52,0l0,13.02z M280.10208,15.56l2.94,0c3.64,0,6.16,1.54,6.16,4.844c0,2.436-1.148,3.92-3.36,4.62c2.632,0.756,4.004,2.324,4.004,4.48c0,4.116-2.744,5.796-7.28,5.796l-8.904,0l0-2.38l2.1-0.84l0-13.16l-2.1-0.84l0-2.38z M280.10208,23.624l1.624,0c2.044,0,3.136-0.868,3.136-2.604c0-1.456-1.036-2.1-2.38-2.1l-2.38,0l0,4.704z M280.10208,31.94l2.324,0c1.96,0,2.996-0.896,2.996-2.436c0-2.044-1.176-2.94-3.696-2.94l-1.624,0l0,5.376z"/></svg>
